<?xml version="1.0" standalone="no"?>
<!DOCTYPE svg PUBLIC "-//W3C//DTD SVG 20010904//EN"
 "http://www.w3.org/TR/2001/REC-SVG-20010904/DTD/svg10.dtd">
<svg version="1.0" xmlns="http://www.w3.org/2000/svg"
 width="560.000000pt" height="560.000000pt" viewBox="0 0 560.000000 560.000000"
 preserveAspectRatio="xMidYMid meet">
<metadata>
Created by potrace 1.14, written by Peter Selinger 2001-2017
</metadata>
<g transform="translate(0.000000,560.000000) scale(0.100000,-0.100000)"
fill="#000000" stroke="none">
<path d="M2609 5596 c-2 -2 -44 -7 -94 -11 -49 -4 -92 -8 -95 -10 -3 -2 -26
-6 -50 -9 -160 -19 -482 -109 -638 -177 -245 -108 -503 -258 -647 -376 -5 -5
-23 -19 -40 -31 -45 -35 -162 -140 -219 -198 -275 -276 -484 -592 -626 -948
-45 -113 -103 -289 -114 -346 -3 -14 -14 -68 -26 -120 -23 -104 -26 -120 -45
-278 -12 -103 -13 -503 -1 -582 7 -44 15 -104 21 -150 19 -149 94 -422 166
-600 75 -186 232 -476 312 -575 4 -5 35 -46 67 -90 386 -513 1011 -908 1640
-1034 93 -19 103 -21 150 -27 25 -3 52 -7 60 -9 102 -26 656 -26 750 0 8 3 31
6 51 9 110 13 296 59 457 112 144 47 237 87 392 166 599 307 1070 824 1318
1448 47 117 105 294 116 350 2 14 11 54 20 90 19 81 24 111 32 175 4 28 8 53
10 56 17 30 26 493 11 644 -55 571 -300 1134 -682 1570 -403 459 -966 786
-1550 899 -44 8 -89 17 -100 20 -11 2 -47 7 -80 11 -33 4 -71 9 -85 11 -30 6
-476 14 -481 10z"/>
</g>
</svg>
